<mxfile host="app.diagrams.net" modified="2024-03-05T17:06:24.286Z" agent="Mozilla/5.0 (Windows NT 10.0; Win64; x64) AppleWebKit/537.36 (KHTML, like Gecko) Chrome/122.0.0.0 Safari/537.36" etag="5wqF_34qPHhS7zBxEAX0" version="24.0.1" type="github">
  <diagram id="C5RBs43oDa-KdzZeNtuy" name="Page-1">
    <mxGraphModel dx="954" dy="600" grid="1" gridSize="10" guides="1" tooltips="1" connect="1" arrows="1" fold="1" page="1" pageScale="1" pageWidth="827" pageHeight="1169" math="0" shadow="0">
      <root>
        <mxCell id="WIyWlLk6GJQsqaUBKTNV-0" />
        <mxCell id="WIyWlLk6GJQsqaUBKTNV-1" parent="WIyWlLk6GJQsqaUBKTNV-0" />
        <mxCell id="q8oK_Sy_ORf_mRLsfRXt-8" style="edgeStyle=orthogonalEdgeStyle;rounded=0;orthogonalLoop=1;jettySize=auto;html=1;exitX=0.5;exitY=1;exitDx=0;exitDy=0;exitPerimeter=0;entryX=0.5;entryY=0;entryDx=0;entryDy=0;" edge="1" parent="WIyWlLk6GJQsqaUBKTNV-1" source="q8oK_Sy_ORf_mRLsfRXt-0" target="q8oK_Sy_ORf_mRLsfRXt-2">
          <mxGeometry relative="1" as="geometry" />
        </mxCell>
        <mxCell id="q8oK_Sy_ORf_mRLsfRXt-0" value="Inicio" style="strokeWidth=2;html=1;shape=mxgraph.flowchart.start_1;whiteSpace=wrap;" vertex="1" parent="WIyWlLk6GJQsqaUBKTNV-1">
          <mxGeometry x="386" y="10" width="56" height="40" as="geometry" />
        </mxCell>
        <mxCell id="q8oK_Sy_ORf_mRLsfRXt-1" value="Fin" style="strokeWidth=2;html=1;shape=mxgraph.flowchart.start_1;whiteSpace=wrap;" vertex="1" parent="WIyWlLk6GJQsqaUBKTNV-1">
          <mxGeometry x="570" y="430" width="56" height="40" as="geometry" />
        </mxCell>
        <mxCell id="q8oK_Sy_ORf_mRLsfRXt-9" style="edgeStyle=orthogonalEdgeStyle;rounded=0;orthogonalLoop=1;jettySize=auto;html=1;exitX=0.5;exitY=1;exitDx=0;exitDy=0;entryX=0.5;entryY=0;entryDx=0;entryDy=0;" edge="1" parent="WIyWlLk6GJQsqaUBKTNV-1" source="q8oK_Sy_ORf_mRLsfRXt-2" target="q8oK_Sy_ORf_mRLsfRXt-3">
          <mxGeometry relative="1" as="geometry" />
        </mxCell>
        <mxCell id="q8oK_Sy_ORf_mRLsfRXt-2" value="cotizarPaquete" style="rounded=1;whiteSpace=wrap;html=1;absoluteArcSize=1;arcSize=14;strokeWidth=2;" vertex="1" parent="WIyWlLk6GJQsqaUBKTNV-1">
          <mxGeometry x="364" y="70" width="100" height="30" as="geometry" />
        </mxCell>
        <mxCell id="q8oK_Sy_ORf_mRLsfRXt-3" value="Calculo de costos" style="rounded=1;whiteSpace=wrap;html=1;absoluteArcSize=1;arcSize=14;strokeWidth=2;" vertex="1" parent="WIyWlLk6GJQsqaUBKTNV-1">
          <mxGeometry x="354" y="120" width="120" height="30" as="geometry" />
        </mxCell>
        <mxCell id="q8oK_Sy_ORf_mRLsfRXt-11" style="edgeStyle=orthogonalEdgeStyle;rounded=0;orthogonalLoop=1;jettySize=auto;html=1;exitX=0.5;exitY=1;exitDx=0;exitDy=0;exitPerimeter=0;entryX=0.5;entryY=0;entryDx=0;entryDy=0;" edge="1" parent="WIyWlLk6GJQsqaUBKTNV-1" source="q8oK_Sy_ORf_mRLsfRXt-4" target="q8oK_Sy_ORf_mRLsfRXt-5">
          <mxGeometry relative="1" as="geometry" />
        </mxCell>
        <mxCell id="q8oK_Sy_ORf_mRLsfRXt-13" style="edgeStyle=orthogonalEdgeStyle;rounded=0;orthogonalLoop=1;jettySize=auto;html=1;exitX=1;exitY=0.5;exitDx=0;exitDy=0;exitPerimeter=0;entryX=0;entryY=0.5;entryDx=0;entryDy=0;" edge="1" parent="WIyWlLk6GJQsqaUBKTNV-1" source="q8oK_Sy_ORf_mRLsfRXt-4" target="q8oK_Sy_ORf_mRLsfRXt-6">
          <mxGeometry relative="1" as="geometry" />
        </mxCell>
        <mxCell id="q8oK_Sy_ORf_mRLsfRXt-4" value="¿Es frágil?" style="strokeWidth=2;html=1;shape=mxgraph.flowchart.decision;whiteSpace=wrap;" vertex="1" parent="WIyWlLk6GJQsqaUBKTNV-1">
          <mxGeometry x="364" y="170" width="100" height="50" as="geometry" />
        </mxCell>
        <mxCell id="q8oK_Sy_ORf_mRLsfRXt-12" style="edgeStyle=orthogonalEdgeStyle;rounded=0;orthogonalLoop=1;jettySize=auto;html=1;exitX=0.5;exitY=1;exitDx=0;exitDy=0;entryX=0.5;entryY=0;entryDx=0;entryDy=0;" edge="1" parent="WIyWlLk6GJQsqaUBKTNV-1" source="q8oK_Sy_ORf_mRLsfRXt-5" target="q8oK_Sy_ORf_mRLsfRXt-7">
          <mxGeometry relative="1" as="geometry" />
        </mxCell>
        <mxCell id="q8oK_Sy_ORf_mRLsfRXt-5" value="total = total + costo de fragilidad" style="rounded=1;whiteSpace=wrap;html=1;absoluteArcSize=1;arcSize=14;strokeWidth=2;" vertex="1" parent="WIyWlLk6GJQsqaUBKTNV-1">
          <mxGeometry x="354" y="240" width="120" height="40" as="geometry" />
        </mxCell>
        <mxCell id="q8oK_Sy_ORf_mRLsfRXt-14" style="edgeStyle=orthogonalEdgeStyle;rounded=0;orthogonalLoop=1;jettySize=auto;html=1;exitX=0.5;exitY=1;exitDx=0;exitDy=0;entryX=0.5;entryY=0;entryDx=0;entryDy=0;" edge="1" parent="WIyWlLk6GJQsqaUBKTNV-1" source="q8oK_Sy_ORf_mRLsfRXt-6" target="q8oK_Sy_ORf_mRLsfRXt-7">
          <mxGeometry relative="1" as="geometry">
            <Array as="points">
              <mxPoint x="670" y="290" />
              <mxPoint x="414" y="290" />
            </Array>
          </mxGeometry>
        </mxCell>
        <mxCell id="q8oK_Sy_ORf_mRLsfRXt-6" value="total = total" style="rounded=1;whiteSpace=wrap;html=1;absoluteArcSize=1;arcSize=14;strokeWidth=2;" vertex="1" parent="WIyWlLk6GJQsqaUBKTNV-1">
          <mxGeometry x="630" y="175" width="80" height="40" as="geometry" />
        </mxCell>
        <mxCell id="q8oK_Sy_ORf_mRLsfRXt-7" value="Detalle cotizacion" style="rounded=1;whiteSpace=wrap;html=1;absoluteArcSize=1;arcSize=14;strokeWidth=2;" vertex="1" parent="WIyWlLk6GJQsqaUBKTNV-1">
          <mxGeometry x="361" y="300" width="106" height="30" as="geometry" />
        </mxCell>
        <mxCell id="q8oK_Sy_ORf_mRLsfRXt-10" style="edgeStyle=orthogonalEdgeStyle;rounded=0;orthogonalLoop=1;jettySize=auto;html=1;exitX=0.5;exitY=1;exitDx=0;exitDy=0;entryX=0.5;entryY=0;entryDx=0;entryDy=0;entryPerimeter=0;" edge="1" parent="WIyWlLk6GJQsqaUBKTNV-1" source="q8oK_Sy_ORf_mRLsfRXt-3" target="q8oK_Sy_ORf_mRLsfRXt-4">
          <mxGeometry relative="1" as="geometry" />
        </mxCell>
        <mxCell id="q8oK_Sy_ORf_mRLsfRXt-15" value="&lt;div style=&quot;line-height: 120%;&quot;&gt;&lt;span style=&quot;background-color: initial;&quot;&gt;&quot;total&quot;: ,&lt;/span&gt;&lt;br&gt;&lt;/div&gt;&lt;div style=&quot;line-height: 120%;&quot;&gt;&amp;nbsp; &quot;detalle&quot;: {&lt;/div&gt;&lt;div style=&quot;line-height: 120%;&quot;&gt;&amp;nbsp; &amp;nbsp; &quot;total&quot;: ,&lt;/div&gt;&lt;div style=&quot;line-height: 120%;&quot;&gt;&amp;nbsp; &amp;nbsp; &quot;costoGuia&quot;: ,&lt;/div&gt;&lt;div style=&quot;line-height: 120%;&quot;&gt;&amp;nbsp; &amp;nbsp; &quot;fragil&quot;: ,&lt;/div&gt;&lt;div style=&quot;line-height: 120%;&quot;&gt;&amp;nbsp; &amp;nbsp; &quot;seguro&quot;: ,&lt;/div&gt;&lt;div style=&quot;line-height: 120%;&quot;&gt;&amp;nbsp; &amp;nbsp; &quot;cargoCombustibleVar&quot;: ,&lt;/div&gt;&lt;div style=&quot;line-height: 120%;&quot;&gt;&amp;nbsp; &amp;nbsp; &quot;cargoCombustible&quot;: ,&lt;/div&gt;&lt;div style=&quot;line-height: 120%;&quot;&gt;&amp;nbsp; &amp;nbsp; &quot;sobrePeso&quot;:&amp;nbsp;&lt;/div&gt;&lt;div style=&quot;line-height: 120%;&quot;&gt;&amp;nbsp; }&lt;/div&gt;" style="strokeWidth=2;html=1;shape=mxgraph.flowchart.document2;whiteSpace=wrap;size=0.25;" vertex="1" parent="WIyWlLk6GJQsqaUBKTNV-1">
          <mxGeometry x="338.5" y="350" width="151" height="200" as="geometry" />
        </mxCell>
        <mxCell id="q8oK_Sy_ORf_mRLsfRXt-16" style="edgeStyle=orthogonalEdgeStyle;rounded=0;orthogonalLoop=1;jettySize=auto;html=1;exitX=0.5;exitY=1;exitDx=0;exitDy=0;entryX=0.5;entryY=0;entryDx=0;entryDy=0;entryPerimeter=0;" edge="1" parent="WIyWlLk6GJQsqaUBKTNV-1" source="q8oK_Sy_ORf_mRLsfRXt-7" target="q8oK_Sy_ORf_mRLsfRXt-15">
          <mxGeometry relative="1" as="geometry" />
        </mxCell>
        <mxCell id="q8oK_Sy_ORf_mRLsfRXt-17" style="edgeStyle=orthogonalEdgeStyle;rounded=0;orthogonalLoop=1;jettySize=auto;html=1;exitX=1;exitY=0.5;exitDx=0;exitDy=0;exitPerimeter=0;entryX=0;entryY=0.5;entryDx=0;entryDy=0;entryPerimeter=0;" edge="1" parent="WIyWlLk6GJQsqaUBKTNV-1" source="q8oK_Sy_ORf_mRLsfRXt-15" target="q8oK_Sy_ORf_mRLsfRXt-1">
          <mxGeometry relative="1" as="geometry" />
        </mxCell>
      </root>
    </mxGraphModel>
  </diagram>
</mxfile>
